<svg xmlns="http://www.w3.org/2000/svg" viewBox="0 0 64 64" role="img" aria-hidden="true">
  <defs>
    <linearGradient id="o-main" x1=".15" y1=".1" x2=".85" y2=".95">
      <stop offset="0" stop-color="#6ea8f5"/>
      <stop offset=".5" stop-color="#3d82f0"/>
      <stop offset="1" stop-color="#2563d6"/>
    </linearGradient>
    <linearGradient id="o-alt" x1=".2" y1=".1" x2=".8" y2="1">
      <stop offset="0" stop-color="#cfe2ff"/>
      <stop offset="1" stop-color="#9cc4fb"/>
    </linearGradient>
  </defs>
  <path d="M31 50V30a3 3 0 0 1 3-3h11a3 3 0 0 1 3 3v20Z" fill="url(#o-alt)"/>
  <path d="M15 50V17a3 3 0 0 1 3-3h11a3 3 0 0 1 3 3v33Z" fill="url(#o-main)"/>
  <g fill="#ffd24d">
    <rect x="19.5" y="21" width="4" height="4" rx="1"/>
    <rect x="24.5" y="21" width="4" height="4" rx="1"/>
    <rect x="19.5" y="28" width="4" height="4" rx="1"/>
    <rect x="24.5" y="28" width="4" height="4" rx="1"/>
    <rect x="19.5" y="35" width="4" height="4" rx="1"/>
    <rect x="24.5" y="35" width="4" height="4" rx="1"/>
  </g>
  <g fill="#7aa6e8">
    <rect x="35" y="33" width="3.6" height="3.6" rx="1"/>
    <rect x="40.6" y="33" width="3.6" height="3.6" rx="1"/>
    <rect x="35" y="40" width="3.6" height="3.6" rx="1"/>
    <rect x="40.6" y="40" width="3.6" height="3.6" rx="1"/>
  </g>
  <rect x="12" y="48" width="40" height="3.6" rx="1.8" fill="#1c52bf"/>
</svg>
